<svg width="181" height="285" viewBox="0 0 181 285" fill="none" xmlns="http://www.w3.org/2000/svg">
<mask id="path-1-inside-1" fill="white">
<path fill-rule="evenodd" clip-rule="evenodd" d="M125.002 0L125 0.00177002L180.911 55.9123L181 55.8228V258C181 263.523 176.523 268 171 268H10C4.47715 268 0 263.523 0 258V10C0 4.47716 4.47715 0 10 0H125.002Z"/>
</mask>
<path fill-rule="evenodd" clip-rule="evenodd" d="M125.002 0L125 0.00177002L180.911 55.9123L181 55.8228V258C181 263.523 176.523 268 171 268H10C4.47715 268 0 263.523 0 258V10C0 4.47716 4.47715 0 10 0H125.002Z" fill="#ECECEC"/>
<path d="M125 0.00177002L117.929 -7.0693L110.858 0.0017705L117.929 7.07284L125 0.00177002ZM125.002 0L132.073 7.07107L149.144 -10H125.002V0ZM180.911 55.9123L173.839 62.9833L180.911 70.0544L187.982 62.9833L180.911 55.9123ZM181 55.8228H191V31.6806L173.929 48.7517L181 55.8228ZM132.071 7.07284L132.073 7.07107L117.931 -7.07107L117.929 -7.0693L132.071 7.07284ZM187.982 48.8412L132.071 -7.0693L117.929 7.07284L173.839 62.9833L187.982 48.8412ZM173.929 48.7517L173.839 48.8412L187.982 62.9833L188.071 62.8938L173.929 48.7517ZM171 55.8228V258H191V55.8228H171ZM171 258V278C182.046 278 191 269.046 191 258H171ZM171 258H10V278H171V258ZM10 258H-10C-10 269.046 -1.04569 278 10 278V258ZM10 258V10H-10V258H10ZM10 10V10V-10C-1.04571 -10 -10 -1.04568 -10 10H10ZM10 10H125.002V-10H10V10Z" fill="black" mask="url(#path-1-inside-1)"/>
<line x1="122" y1="3" x2="122" y2="58" stroke="black" stroke-width="10"/>
<line x1="117" y1="55" x2="172" y2="55" stroke="black" stroke-width="10"/>
<path d="M120.536 187.464C118.583 185.512 115.417 185.512 113.464 187.464L81.6447 219.284C79.692 221.237 79.692 224.403 81.6447 226.355C83.5973 228.308 86.7631 228.308 88.7157 226.355L117 198.071L145.284 226.355C147.237 228.308 150.403 228.308 152.355 226.355C154.308 224.403 154.308 221.237 152.355 219.284L120.536 187.464ZM122 285L122 191H112L112 285H122Z" fill="black"/>
<path d="M117 194L148.177 227.75H85.8231L117 194Z" fill="black"/>
</svg>
